#!OML:ASF F:\VICON\USERDATA\INSTALL\rory3\rory3.ASF
:FULLY-SPECIFIED
:DEGREES
1396
root -10.7519 17.9677 15.6081 353.18 -93.2827 2.49111
lowerback 11.9912 0.463231 -0.454854
upperback 1.45148 0.555018 1.14349
thorax -5.21881 0.265568 1.3666
lowerneck -17.0739 -4.87425 -10.4581
upperneck 28.9792 -6.87627 7.57099
head 13.21 -3.42745 3.55989
rclavicle 1.42628e-014 1.27222e-014
rhumerus -35.7838 -9.33756 -81.0943
rradius 31.7749
rwrist 6.82904
rhand -16.1842 8.69471
rfingers 7.12502
rthumb 10.0224 -21.0467
lclavicle 1.42628e-014 1.27222e-014
lhumerus -33.0066 2.18952 84.422
lradius 32.4646
lwrist -6.81723
lhand -18.6627 23.9393
lfingers 7.12502
lthumb 7.63075 53.7816
rfemur -11.6203 -2.38289 25.0397
rtibia 24.1898
rfoot -4.94151 -6.25424
rtoes 16.4433
lfemur -4.59191 -3.93265 -18.9529
ltibia 53.686
lfoot -0.0190689 -9.30873
ltoes -8.56392
1397
root -10.8309 17.9712 15.6034 350.349 -93.7522 5.27657
lowerback 12.1035 0.526713 -0.33022
upperback 1.41777 0.660628 1.23825
thorax -5.31934 0.315992 1.37794
lowerneck -16.938 -4.95184 -10.3523
upperneck 29.0047 -7.00512 7.43056
head 13.196 -3.4965 3.46486
rclavicle -4.77083e-015 5.56597e-015
rhumerus -35.7012 -8.95049 -81.1621
rradius 32.0645
rwrist 6.68223
rhand -16.6127 8.64779
rfingers 7.12502
rthumb 9.60904 -21.1131
lclavicle -4.77083e-015 5.56597e-015
lhumerus -33.1027 2.38225 84.5899
lradius 32.2276
lwrist -7.26078
lhand -19.0034 24.0292
lfingers 7.12502
lthumb 7.30184 53.8832
rfemur -11.2196 -2.13842 25.3322
rtibia 24.0899
rfoot -5.08077 -6.20048
rtoes 15.9511
lfemur -5.34241 -3.9754 -18.7002
ltibia 54.3766
lfoot -0.985704 -8.41246
ltoes -7.36831
1398
root -10.9051 17.9737 15.5996 349.536 -94.1779 6.10441
lowerback 12.1804 0.630788 -0.197922
upperback 1.3879 0.815584 1.21221
thorax -5.39539 0.389548 1.24976
lowerneck -16.9046 -5.00258 -10.3606
upperneck 29.0718 -7.1397 7.56463
head 13.2385 -3.54371 3.49776
rclavicle 9.93923e-016 -3.97569e-016
rhumerus -35.5578 -8.76373 -81.2801
rradius 32.3364
rwrist 6.54516
rhand -16.7005 8.55358
rfingers 7.12502
rthumb 9.52432 -21.2112
lclavicle 9.93923e-016 -3.97569e-016
lhumerus -33.1981 2.34658 84.6904
lradius 32.0961
lwrist -7.68966
lhand -18.7919 23.9707
lfingers 7.12502
lthumb 7.506 53.8175
rfemur -10.897 -1.81036 25.4851
rtibia 23.991
rfoot -5.27477 -6.17271
rtoes 15.8422
lfemur -6.18078 -4.04675 -18.5596
ltibia 54.929
lfoot -1.75614 -7.60915
ltoes -7.5144
1399
root -10.9777 17.9733 15.5951 349.893 -94.5624 5.79811
lowerback 12.2012 0.742685 -0.200083
upperback 1.36024 0.963699 1.19212
thorax -5.43931 0.462712 1.20495
lowerneck -16.7855 -5.05533 -10.3405
upperneck 28.9889 -7.2474 7.6122
head 13.1921 -3.58522 3.49418
rclavicle -2.23633e-015 -7.55382e-015
rhumerus -35.4192 -8.49694 -81.4032
rradius 32.6814
rwrist 6.20026
rhand -16.7979 8.40054
rfingers 7.12502
rthumb 9.43035 -21.3685
lclavicle -2.23633e-015 -7.55382e-015
lhumerus -33.3159 2.2147 84.8536
lradius 32.0421
lwrist -7.77165
lhand -18.7048 23.7354
lfingers 7.12502
lthumb 7.59004 53.5792
rfemur -10.6694 -1.82462 25.5325
rtibia 23.9114
rfoot -5.4502 -5.74118
rtoes 15.4238
lfemur -7.03537 -4.12594 -18.4776
ltibia 55.336
lfoot -2.5514 -6.98227
ltoes -8.85323
1400
root -11.052 17.9739 15.5915 349.853 -94.9945 5.84639
lowerback 12.1855 0.807415 -0.253702
upperback 1.39113 1.04411 1.25326
thorax -5.40216 0.503187 1.28627
lowerneck -16.7572 -5.08964 -10.4222
upperneck 28.9713 -7.29013 7.65307
head 13.1895 -3.60898 3.51686
rclavicle 6.33626e-015 4.37326e-015
rhumerus -35.1699 -8.47163 -81.3556
rradius 32.9778
rwrist 5.79855
rhand -16.562 8.63286
rfingers 7.12502
rthumb 9.65792 -21.1257
lclavicle 6.33626e-015 4.37326e-015
lhumerus -33.3226 2.57087 84.9457
lradius 31.8783
lwrist -7.92516
lhand -19.0716 23.7162
lfingers 7.12502
lthumb 7.23604 53.5725
rfemur -10.4129 -1.76395 25.6093
rtibia 23.9179
rfoot -5.68937 -5.369
rtoes 15.2125
lfemur -7.77215 -4.39056 -18.4098
ltibia 55.5753
lfoot -3.3703 -6.38905
ltoes -8.84641
